<svg width="25" height="33" viewBox="0 0 25 33" fill="none" xmlns="http://www.w3.org/2000/svg">
<path d="M10.908 24.9344L11.3358 25.6912L10.908 24.9344L7.9484 26.6072C7.33562 26.4748 6.66754 26.5154 6.08775 26.7299L2.72752 27.9728C2.21631 28.1619 1.77794 28.4705 1.51848 28.9146C1.24886 29.376 1.22363 29.9018 1.41153 30.3693C1.77292 31.2684 2.78377 31.7474 3.86914 31.7474H21.3142C22.4164 31.7474 23.4417 31.2544 23.7869 30.3304C23.966 29.8509 23.9215 29.3203 23.6349 28.8642C23.3593 28.4255 22.9072 28.1254 22.3819 27.9466L18.7294 26.7036C18.1139 26.4941 17.4067 26.4754 16.7743 26.6484L13.3946 24.891C12.6118 24.4839 11.6762 24.5002 10.908 24.9344Z" stroke="#348E2B" stroke-width="1.73873"/>
<path d="M14.93 6.79513C13.2187 9.35002 12.8263 12.4675 13.611 15.2529C16.3413 15.0763 18.9806 13.6466 20.6854 11.1013C22.3968 8.54642 22.7892 5.42897 22.0045 2.64349C19.2741 2.82013 16.6349 4.24987 14.93 6.79513Z" fill="#70D767" stroke="#70D767" stroke-width="1.26453"/>
<path d="M13.2781 14.0318C13.3024 13.4422 13.6755 12.8125 14.0284 12.3284C14.7182 11.3819 15.644 10.6183 16.4552 9.76077C17.1184 9.05951 17.948 8.49041 18.6041 7.79145C18.826 7.55507 19.2103 7.3519 19.3636 7.07684" stroke="#348E2B" stroke-width="1.73873" stroke-linecap="round"/>
<path d="M13.8343 17.5814C15.2943 13.9715 15.1359 9.71253 13.0511 6.12562C10.9664 2.53876 7.43354 0.446798 3.71144 0.164597C2.25144 3.77454 2.40982 8.0335 4.4946 11.6204C6.57935 15.2073 10.1122 17.2992 13.8343 17.5814Z" fill="#70D767"/>
<path d="M9.15869 8.94824C9.37309 9.14636 9.52922 9.41717 9.69909 9.65157C10.1918 10.3315 10.7028 11.0095 11.1473 11.7224C11.5507 12.3693 11.9056 13.031 12.2433 13.7131C12.8403 14.9188 13.4806 16.3695 13.456 17.7419C13.439 18.6888 13.4315 19.6019 13.2742 20.5409C13.1817 21.094 13.0818 21.642 12.9735 22.1915C12.899 22.5692 12.8795 22.9615 12.7878 23.3325C12.7566 23.4585 12.5995 24.0197 12.7018 24.1098" stroke="#348E2B" stroke-width="1.73873" stroke-linecap="round"/>
<path d="M9.19702 8.48064C9.19702 8.19494 9.27496 7.92066 9.33515 7.64347C9.36905 7.48736 9.39741 7.33049 9.43282 7.17466C9.48145 6.96071 9.48781 6.74059 9.53538 6.52655C9.58697 6.29439 9.62049 6.05987 9.67909 5.82891C9.70751 5.71691 9.73059 5.60345 9.75513 5.49056C9.76472 5.44647 9.78722 5.39929 9.78722 5.35382" stroke="#348E2B" stroke-width="1.73873" stroke-linecap="round"/>
<path d="M8.90827 8.78194C8.72467 8.77488 8.54287 8.68035 8.36412 8.64381C8.13903 8.5978 7.91416 8.54448 7.6902 8.49312C7.52595 8.45546 7.3688 8.38594 7.21022 8.32988C7.12531 8.29986 7.0361 8.28125 6.95 8.25453C6.9101 8.24215 6.86628 8.21686 6.82373 8.21686" stroke="#348E2B" stroke-width="1.73873" stroke-linecap="round"/>
</svg>
